<?xml version="1.0" standalone="no"?>
<!DOCTYPE svg PUBLIC "-//W3C//DTD SVG 20010904//EN"
 "http://www.w3.org/TR/2001/REC-SVG-20010904/DTD/svg10.dtd">
<svg version="1.0" xmlns="http://www.w3.org/2000/svg"
 width="200.000000pt" height="200.000000pt" viewBox="0 0 200.000000 200.000000"
 preserveAspectRatio="xMidYMid meet">

<g transform="translate(0.000000,200.000000) scale(0.100000,-0.100000)"
fill="#000000" stroke="none">
<path d="M178 1794 c-5 -4 -8 -25 -8 -46 l0 -38 128 0 c110 0 131 -3 144 -17
14 -17 208 -958 208 -1010 0 -13 -15 -40 -34 -60 -18 -21 -38 -48 -45 -60 -28
-54 -2 -142 52 -178 13 -8 47 -16 75 -18 l52 -2 0 -45 c0 -116 115 -182 213
-121 40 24 70 88 65 135 l-3 28 140 -1 c77 0 145 -1 150 -1 6 0 10 -21 11 -48
1 -83 56 -136 142 -134 79 1 135 62 130 142 l-2 45 49 0 50 0 3 43 3 42 -509
0 c-392 0 -512 3 -524 13 -31 24 -28 45 13 94 22 26 42 58 45 71 l6 22 478 0
478 0 6 28 c6 29 95 672 99 710 l2 22 -591 0 c-465 0 -593 2 -601 12 -6 7 -22
76 -37 152 -15 77 -35 150 -43 163 -30 45 -68 57 -208 61 -72 2 -133 1 -137
-4z m662 -664 l0 -200 -73 0 -73 0 -37 193 c-21 105 -38 195 -37 200 0 4 50 7
110 7 l110 0 0 -200z m290 0 l0 -200 -100 0 -100 0 0 193 c0 107 3 197 7 200
3 4 48 7 100 7 l93 0 0 -200z m288 -2 l2 -198 -100 0 -100 0 0 200 0 201 98
-3 97 -3 3 -197z m273 197 c4 -3 -44 -372 -50 -392 -1 -2 -30 -3 -66 -3 l-65
0 0 200 0 200 88 0 c49 0 91 -2 93 -5z m-67 -522 c-3 -21 -7 -44 -10 -50 -3
-10 -100 -13 -443 -13 l-439 0 -6 36 c-4 19 -10 42 -13 50 -4 12 60 14 455 14
l461 0 -5 -37z m-690 -476 c8 -23 6 -31 -12 -49 -30 -30 -75 -16 -80 25 -5 38
15 59 52 55 23 -2 33 -10 40 -31z m564 21 c26 -26 0 -88 -36 -88 -23 0 -52 30
-52 55 0 28 18 45 50 45 14 0 31 -5 38 -12z"/>
</g>
</svg>
