<?xml version="1.0" standalone="no"?>
<!DOCTYPE svg PUBLIC "-//W3C//DTD SVG 20010904//EN"
 "http://www.w3.org/TR/2001/REC-SVG-20010904/DTD/svg10.dtd">
<svg version="1.0" xmlns="http://www.w3.org/2000/svg"
 width="200.000000pt" height="200.000000pt" viewBox="0 0 200.000000 200.000000"
 preserveAspectRatio="xMidYMid meet">
<metadata>
Created by potrace 1.16, written by Peter Selinger 2001-2019
</metadata>
<g transform="translate(0.000000,200.000000) scale(0.100000,-0.100000)"
fill="#000000" stroke="none">
<path d="M215 1833 c-11 -2 -29 -16 -40 -31 -19 -26 -20 -43 -20 -344 l0 -318
26 -25 25 -26 319 0 319 0 28 29 29 28 0 317 c0 217 -4 322 -12 334 -24 40
-51 43 -358 42 -163 -1 -305 -4 -316 -6z m565 -373 l0 -250 -250 0 -250 0 0
250 0 250 250 0 250 0 0 -250z"/>
<path d="M1137 1829 c-44 -25 -47 -52 -47 -369 0 -317 4 -348 47 -364 9 -4
157 -7 327 -8 l311 0 34 33 33 34 -1 309 -1 309 -25 33 -26 34 -317 0 c-197 0
-324 -4 -335 -11z m583 -369 l0 -250 -255 0 -255 0 0 250 0 250 255 0 255 0 0
-250z"/>
<path d="M210 893 c-8 -2 -25 -18 -37 -35 -21 -30 -22 -39 -23 -323 0 -176 4
-303 10 -319 5 -15 22 -38 36 -51 l27 -25 299 0 c312 0 321 1 360 45 16 18 17
49 18 340 l0 320 -25 28 -26 27 -312 -1 c-172 -1 -319 -3 -327 -6z m570 -368
l0 -255 -250 0 -250 0 0 255 0 255 250 0 250 0 0 -255z"/>
<path d="M1114 812 c5 -85 13 -167 21 -207 19 -96 47 -189 70 -235 23 -46 92
-115 130 -130 76 -30 82 -32 162 -32 62 0 80 5 134 33 79 43 111 75 150 154
54 111 47 216 -23 331 -66 110 -211 155 -546 169 l-102 5 4 -88z m286 -57 c35
-3 50 -6 128 -25 117 -28 164 -83 164 -190 0 -100 -56 -174 -151 -200 -100
-27 -191 10 -233 95 -22 43 -50 175 -62 293 l-4 42 61 -6 c34 -3 78 -7 97 -9z"/>
</g>
</svg>
