<?xml version="1.0" standalone="no"?>
<!DOCTYPE svg PUBLIC "-//W3C//DTD SVG 20010904//EN"
 "http://www.w3.org/TR/2001/REC-SVG-20010904/DTD/svg10.dtd">
<svg version="1.0" xmlns="http://www.w3.org/2000/svg"
 width="200.000000pt" height="200.000000pt" viewBox="0 0 200.000000 200.000000"
 preserveAspectRatio="xMidYMid meet">
<metadata>
Created by potrace 1.16, written by Peter Selinger 2001-2019
</metadata>
<g transform="translate(0.000000,200.000000) scale(0.100000,-0.100000)"
fill="#000000" stroke="none">
<path d="M954 1802 c-11 -10 -75 -58 -144 -108 -69 -50 -217 -158 -329 -240
-112 -82 -240 -175 -285 -207 -95 -69 -112 -84 -120 -113 -9 -28 37 -84 68
-84 13 0 92 51 188 123 91 67 219 160 283 207 155 112 337 246 350 257 6 5 15
12 22 16 7 5 61 -28 135 -83 68 -50 140 -103 161 -118 21 -15 60 -43 85 -63
26 -19 90 -66 142 -104 52 -37 99 -72 105 -77 5 -5 56 -42 112 -83 89 -65 107
-74 133 -68 32 6 60 36 60 64 0 32 -43 69 -312 265 -150 109 -309 225 -354
259 -44 33 -99 74 -122 90 -24 17 -52 38 -64 48 -12 10 -33 20 -47 23 -14 3
-31 7 -37 9 -7 2 -20 -4 -30 -13z"/>
<path d="M299 1070 l-30 -29 3 -415 3 -414 24 -26 24 -26 255 0 255 0 23 28
c24 27 24 28 24 285 l0 257 33 35 c39 41 86 51 135 28 63 -30 64 -35 63 -311
-2 -252 4 -302 36 -302 7 0 13 -4 13 -10 0 -6 91 -10 254 -10 l253 0 26 24
c14 13 29 35 32 48 3 12 4 202 3 420 l-3 396 -24 26 c-31 33 -65 33 -96 0 -13
-14 -24 -29 -23 -33 0 -3 0 -171 -1 -374 l-1 -367 -162 2 -163 3 -2 223 c-1
204 -3 226 -22 265 -52 103 -137 157 -244 153 -67 -3 -115 -24 -166 -74 -71
-69 -75 -87 -79 -345 l-4 -227 -161 2 -162 3 -5 377 c-5 340 -7 379 -22 398
-25 28 -55 25 -89 -10z"/>
</g>
</svg>
