<?xml version="1.0" standalone="no"?>
<!DOCTYPE svg PUBLIC "-//W3C//DTD SVG 20010904//EN"
 "http://www.w3.org/TR/2001/REC-SVG-20010904/DTD/svg10.dtd">
<svg version="1.0" xmlns="http://www.w3.org/2000/svg"
 width="200.000000pt" height="200.000000pt" viewBox="0 0 200.000000 200.000000"
 preserveAspectRatio="xMidYMid meet">

<g transform="translate(0.000000,200.000000) scale(0.100000,-0.100000)"
fill="#000000" stroke="none">
<path d="M225 1625 c-14 -13 -25 -36 -25 -50 0 -14 11 -37 25 -50 l24 -25 766
0 766 0 24 25 c14 13 25 36 25 50 0 14 -11 37 -25 50 l-24 25 -766 0 -766 0
-24 -25z"/>
<path d="M226 1239 c-34 -27 -35 -71 -1 -104 l24 -25 766 0 766 0 24 25 c14
13 25 36 25 50 0 14 -11 37 -25 50 l-24 25 -764 0 c-758 0 -765 0 -791 -21z"/>
<path d="M222 847 c-27 -29 -28 -67 -3 -98 l19 -24 754 -3 c414 -1 763 0 775
3 30 7 63 44 63 71 0 12 -9 33 -21 48 l-20 26 -773 0 -773 0 -21 -23z"/>
<path d="M220 460 c-35 -35 -25 -92 21 -115 23 -12 97 -15 429 -15 l402 0 29
29 c34 35 36 59 8 95 l-20 26 -425 0 c-411 0 -425 -1 -444 -20z"/>
</g>
</svg>
