<svg xmlns="http://www.w3.org/2000/svg" width="21.6" height="21.441" viewBox="0 0 21.6 21.441">
  <g id="offer" transform="translate(0 -0.346)">
    <path id="Path_111" data-name="Path 111" d="M114.779,9.632v.014a2.331,2.331,0,0,0,1.331,2.224l.009,0a1.567,1.567,0,0,1,.71.683l0,.006a2.436,2.436,0,0,0,2.289,1.278h.015a1.667,1.667,0,0,1,.986.256,2.5,2.5,0,0,0,2.65,0,1.667,1.667,0,0,1,.986-.256h.015a2.437,2.437,0,0,0,2.29-1.279l0,0a1.57,1.57,0,0,1,.712-.684l.007,0a2.331,2.331,0,0,0,1.331-2.224V9.632a1.491,1.491,0,0,1,.26-.924,2.294,2.294,0,0,0,0-2.594,1.492,1.492,0,0,1-.26-.924V5.176a2.331,2.331,0,0,0-1.331-2.224l-.008,0a1.566,1.566,0,0,1-.709-.68l0-.009A2.438,2.438,0,0,0,123.771.981h-.015a1.666,1.666,0,0,1-.985-.256h0a2.5,2.5,0,0,0-2.65,0,1.668,1.668,0,0,1-.986.256h-.015a2.436,2.436,0,0,0-2.289,1.277l0,.006a1.568,1.568,0,0,1-.711.684l-.008,0a2.331,2.331,0,0,0-1.331,2.224v.013a1.491,1.491,0,0,1-.26.924,2.294,2.294,0,0,0,0,2.594,1.491,1.491,0,0,1,.259.924Zm.4-3.061a2.3,2.3,0,0,0,.4-1.426V5.13a1.529,1.529,0,0,1,.878-1.454l.007,0a2.368,2.368,0,0,0,1.073-1.032l0-.007a1.631,1.631,0,0,1,1.534-.848h.014a2.464,2.464,0,0,0,1.457-.379,1.69,1.69,0,0,1,1.793,0,2.469,2.469,0,0,0,1.457.379h.014a1.628,1.628,0,0,1,1.534.847l.005.01a2.368,2.368,0,0,0,1.072,1.031l.007,0a1.529,1.529,0,0,1,.879,1.455v.014a2.3,2.3,0,0,0,.4,1.426,1.485,1.485,0,0,1,0,1.68,2.3,2.3,0,0,0-.4,1.427v.014a1.53,1.53,0,0,1-.879,1.455l-.006,0a2.371,2.371,0,0,0-1.074,1.034l0,.006a1.63,1.63,0,0,1-1.535.848H123.8a2.468,2.468,0,0,0-1.458.379,1.69,1.69,0,0,1-1.792,0,2.464,2.464,0,0,0-1.321-.383q-.068,0-.136,0h-.014a1.629,1.629,0,0,1-1.535-.849l0-.008a2.365,2.365,0,0,0-1.071-1.031l-.007,0a1.529,1.529,0,0,1-.879-1.455V9.677a2.3,2.3,0,0,0-.4-1.426,1.485,1.485,0,0,1,0-1.68Zm0,0" transform="translate(-108.381)" fill="#0d52d6"/>
    <path id="Path_112" data-name="Path 112" d="M204.693,65.305a.4.4,0,0,0,.554-.128l4.764-7.632a.4.4,0,1,0-.682-.426l-4.764,7.632A.4.4,0,0,0,204.693,65.305Zm0,0" transform="translate(-194.224 -53.737)" fill="#0d52d6"/>
    <path id="Path_113" data-name="Path 113" d="M183.21,64.769a2.043,2.043,0,1,0-1.776-2.025A1.915,1.915,0,0,0,183.21,64.769Zm0-3.246a1.253,1.253,0,1,1-.972,1.221A1.119,1.119,0,0,1,183.21,61.523Zm0,0" transform="translate(-172.313 -57.338)" fill="#0d52d6"/>
    <path id="Path_114" data-name="Path 114" d="M267.684,142.541a1.791,1.791,0,1,0,1.776-2.025A1.915,1.915,0,0,0,267.684,142.541Zm2.748,0a1,1,0,1,1-.972-1.221A1.119,1.119,0,0,1,270.432,142.541Zm0,0" transform="translate(-254.228 -133.124)" fill="#0d52d6"/>
    <path id="Path_115" data-name="Path 115" d="M21.548,267.925a2.031,2.031,0,0,0-2.682-.818l-3.15,1.488a2.566,2.566,0,0,0-2.187-1.35l-2.908-.08a3.074,3.074,0,0,1-1.322-.341l-.3-.153a5.22,5.22,0,0,0-4.835.005l.018-.67a.4.4,0,0,0-.391-.413l-3.189-.088a.4.4,0,0,0-.413.391l-.193,7a.4.4,0,0,0,.391.413l3.189.088h.011a.4.4,0,0,0,.4-.391L4,272.669l.828-.444a1.421,1.421,0,0,1,1.061-.116l4.947,1.388.026.007a5.3,5.3,0,0,0,1.087.112,5.367,5.367,0,0,0,2.241-.489.392.392,0,0,0,.05-.027l7.173-4.64a.4.4,0,0,0,.132-.536ZM.816,272.515l.17-6.194,2.385.066L3.2,272.58Zm13.016-.105a4.558,4.558,0,0,1-2.788.311l-4.934-1.385a2.223,2.223,0,0,0-1.658.181l-.423.227.113-4.118a4.42,4.42,0,0,1,4.491-.24l.3.153a3.882,3.882,0,0,0,1.67.431l2.908.08a1.763,1.763,0,0,1,1.676,1.405l-4.332-.119a.4.4,0,0,0-.022.8l4.78.132h.011a.4.4,0,0,0,.4-.391,2.566,2.566,0,0,0-.039-.522l3.231-1.527.009,0a1.228,1.228,0,0,1,1.389.194Zm0,0" transform="translate(0 -251.831)" fill="#0d52d6"/>
  </g>
</svg>
