<svg xmlns="http://www.w3.org/2000/svg" width="635.73" height="439.429" viewBox="0 0 635.73 439.429">
  <g id="_67" data-name="67" transform="translate(-245.872 -16.585)">
    <path id="Path_116" data-name="Path 116" d="M717.63,38.768C819.206,101.09,787.3,207.016,830.773,238.721c56.349,41.1,87.41,210.832-24.822,214.207-223.221,6.727-511.672,0-511.672,0s-81.083-72.979-33.37-194.38c47.735-121.4,171.157-89.719,216.982-144.359S616.055-23.531,717.63,38.768Z" transform="translate(0 0)" fill="#caf0ff"/>
    <path id="Path_117" data-name="Path 117" d="M1004.593,1154.1v-38.454H987.742v7.682h-5.906v-15.386h-21.6v15.386H955.5V1111.5h-4.729v-70.98h-5.906v-44.96H916.184l.289,54.2-19.138.222v-43.406H867.672V1052.7l-8.881.289V1006.48H848.445V986.653h-6.217V973.332H817.984v13.321h-6.217v19.827H801.421v25.2l-4.774.288L795.2,957.324H763.255v39.7l-11.234.289V935.3H748.18V922.2H714.455v13.1h-3.841v97.69h-7.1V992.87H697.6V980.1h-8.57V942.892H676.6V980.1h-8.57v12.744h-5.972v44.116h-4.152l-3.264-.044v-51.11l-87.565.844v115.1h-7.371v-15.075H533.085v29H525.4v-10.657H508.551v21.6H491.7v27.509h512.893Z" transform="translate(-191.249 -704.549)" fill="#4188e4" opacity="0.9"/>
    <path id="Path_118" data-name="Path 118" d="M1951.883,169.1a22.051,22.051,0,0,0-20.715,14.5,14.971,14.971,0,0,0-7.349-1.909,15.123,15.123,0,0,0-15.119,15.12q0,.733.066,1.465h98.378a12.143,12.143,0,0,0-11.834-9.414,11.594,11.594,0,0,0-3.064.4,17.873,17.873,0,0,0-16.185-10.3,18.423,18.423,0,0,0-5.329.8,21.954,21.954,0,0,0-18.85-10.657Z" transform="translate(-1293.644 -118.653)" fill="#fff"/>
    <path id="Path_119" data-name="Path 119" d="M717.8,848.953a6.46,6.46,0,0,1,7.882-4.773,9.467,9.467,0,0,1,8.57-5.462,9.842,9.842,0,0,1,2.82.422,11.653,11.653,0,0,1,20.937,2.042,8.006,8.006,0,0,1,11.878,6.994c0,.266-.022.511-.044.777Z" transform="translate(-367.15 -635.542)" fill="#fff"/>
    <path id="Path_120" data-name="Path 120" d="M1522.6,489.816a7.787,7.787,0,0,1,7.593-6.039,7.983,7.983,0,0,1,1.954.244,11.434,11.434,0,0,1,10.368-6.594,11.7,11.7,0,0,1,3.419.511,14.125,14.125,0,0,1,25.377,2.464,9.681,9.681,0,0,1,14.387,8.459c0,.311-.023.622-.045.932H1522.6Z" transform="translate(-993.266 -353.603)" fill="#fff"/>
    <path id="Path_121" data-name="Path 121" d="M2321.7,657.416a7.787,7.787,0,0,1,7.593-6.039,7.987,7.987,0,0,1,1.954.244,11.434,11.434,0,0,1,10.368-6.594,11.7,11.7,0,0,1,3.419.511A14.125,14.125,0,0,1,2370.411,648a9.68,9.68,0,0,1,14.387,8.459c0,.311-.022.622-.044.932H2321.7Z" transform="translate(-1614.949 -483.992)" fill="#fff"/>
    <path id="Path_122" data-name="Path 122" d="M434,1030.016a7.787,7.787,0,0,1,7.593-6.039,7.977,7.977,0,0,1,1.954.244,11.434,11.434,0,0,1,10.368-6.594,11.691,11.691,0,0,1,3.419.511,14.125,14.125,0,0,1,25.377,2.464,9.68,9.68,0,0,1,14.387,8.459c0,.311-.022.622-.044.933H434Z" transform="translate(-146.36 -773.867)" fill="#fff"/>
    <g id="Group_216" data-name="Group 216" transform="translate(401.582 141.311)">
      <g id="Group_213" data-name="Group 213" transform="translate(0 76.496)">
        <path id="Path_123" data-name="Path 123" d="M949.354,929.095l-2.154-1.732c.044-.067,1.354-1.687,3.885-4.463l2.043,1.865C950.686,927.474,949.376,929.072,949.354,929.095Z" transform="translate(-947.2 -922.9)" fill="#fff"/>
      </g>
      <g id="Group_214" data-name="Group 214" transform="translate(12.167)">
        <path id="Path_124" data-name="Path 124" d="M1307.081,653.543c-2.864-2.753-5.772-5.462-8.659-8.059l1.843-2.065c2.908,2.62,5.839,5.351,8.725,8.126Zm-303.127-5.351L1002,646.216c2.775-2.753,5.706-5.506,8.7-8.193l1.843,2.065C1009.593,642.753,1006.707,645.484,1003.954,648.192Zm285.565-10.479c-3.042-2.553-6.128-5.062-9.17-7.438l1.709-2.176c3.086,2.4,6.195,4.929,9.259,7.5Zm-268-5.329-1.754-2.131c3.064-2.531,6.217-5.018,9.391-7.371l1.665,2.22C1027.666,627.433,1024.535,629.875,1021.516,632.384Zm249.375-9.214c-3.219-2.309-6.483-4.574-9.724-6.705l1.532-2.309c3.264,2.154,6.572,4.418,9.813,6.772ZM1040.41,618.2l-1.554-2.287c3.308-2.242,6.661-4.44,10.013-6.483l1.443,2.354C1047,613.823,1043.673,615.977,1040.41,618.2Zm210.744-7.993c-3.4-2.021-6.861-3.974-10.28-5.795l1.288-2.442c3.464,1.843,6.949,3.8,10.413,5.862Zm-190.628-4.352-1.332-2.42c3.508-1.909,7.082-3.752,10.635-5.462l1.2,2.487C1067.519,602.145,1063.989,603.965,1060.525,605.853Zm169.781-6.683c-3.575-1.665-7.216-3.241-10.812-4.685l1.021-2.575c3.641,1.465,7.326,3.042,10.968,4.729Zm-148.51-3.53-1.066-2.553c3.685-1.532,7.46-2.975,11.167-4.263l.911,2.62C1089.144,592.709,1085.436,594.13,1081.795,595.639Zm126.619-5.2c-3.752-1.243-7.549-2.376-11.3-3.375l.711-2.664c3.8,1,7.659,2.153,11.456,3.419Zm-104.373-2.553-.755-2.664c3.841-1.088,7.748-2.042,11.612-2.886l.577,2.709C1111.679,585.87,1107.838,586.825,1104.041,587.891Zm81.615-3.464c-3.863-.755-7.771-1.4-11.634-1.887l.355-2.753c3.93.511,7.9,1.155,11.812,1.909Zm-58.592-1.443-.4-2.731c3.952-.577,7.948-1.021,11.878-1.332l.222,2.753C1134.9,581.963,1130.95,582.407,1127.065,582.984Zm35.235-1.554c-3.907-.222-7.882-.333-11.767-.289l-.022-2.775c3.952-.044,7.993.067,11.967.289Z" transform="translate(-1002 -578.357)" fill="#fff"/>
      </g>
      <g id="Group_215" data-name="Group 215" transform="translate(325.662 81.603)">
        <path id="Path_125" data-name="Path 125" d="M2418.063,952.006c-1.333-1.4-2.708-2.8-4.063-4.174l1.976-1.932c1.354,1.377,2.731,2.8,4.085,4.218Z" transform="translate(-2414 -945.9)" fill="#fff"/>
      </g>
    </g>
    <path id="Path_126" data-name="Path 126" d="M1895.809,177.309c-5.551,1.754-10.812,4.418-16.385,6.061a47.546,47.546,0,0,1-33.392-2.664c-11.59-5.506-20.892-15.719-33.281-19.072-9.036-2.442-18.627-.932-27.93-1.865-9.3-.955-19.538-5.684-21.78-14.764a7.793,7.793,0,0,1,.244-5.173c1.6-3.33,6.017-3.93,9.7-4.107,9.436-.422,18.916-.866,28.264.355,11.9,1.554,23.934,5.795,35.656,3.086,3.574-.821,6.994-2.265,10.546-3.2,8.415-2.176,17.229-1.266,25.843.311-11.323-15.031-26.287-29.263-46.647-41.74q-5.562-3.4-11.079-6.239c-7.549,4.773-14.631,10.5-22.824,14.054-11.856,5.107-25.2,5.262-38.1,4.529-7.7-.444-16.185-.932-22.313,3.73-4.485,3.419-6.794,9.036-10.968,12.833-5.04,4.6-12.123,6.017-18.739,7.682-8.415,2.131-16.9,5.129-23.224,11.057s-9.969,15.408-6.927,23.534c3.885,10.3,16.3,14.365,27.264,15.3,14.032,1.2,28.486-.511,42.007,3.419,9.192,2.664,17.451,7.771,26.021,12.011,14.853,7.327,30.816,12.078,46.824,16.274,11.878,3.108,24,5.972,36.278,5.617,9.1-.266,18.073-2.287,27.176-2.775,9.658-.511,19.716.644,28.708-2.864A294.771,294.771,0,0,0,1895.809,177.309Z" transform="translate(-1109.019 -55.793)" fill="#fff" opacity="0.3"/>
    <path id="Path_127" data-name="Path 127" d="M706.766,360.694c-1.532-.8-3.4-.489-5.106-.289a38.245,38.245,0,0,1-18.605-2.4,77.279,77.279,0,0,1-8.7-4.307c-7.593,7.815-14.476,15.542-20.537,22.757-1.066,1.266-2.176,2.509-3.33,3.686,1.11.488,2.22,1,3.308,1.554,3.13,1.6,6.461,4,6.661,7.5.2,3.419-2.731,6.15-5.617,7.948-7.948,4.929-17.962,6.971-24,14.143-5.329,6.305-6.816,15.9-13.832,20.226-3.13,1.932-6.927,2.464-10.59,2.731-12.233.888-25.022-.622-36.345,4.085-2.487,1.021-4.84,2.353-7.393,3.2a40.912,40.912,0,0,1-10.391,1.621,259.546,259.546,0,0,1-48.068-1.621A148.5,148.5,0,0,0,472,465.755c.688.311,1.377.644,2.065.955,7.083,3.286,14.3,6.594,22.025,7.815,7.1,1.11,14.365.422,21.536-.289,8.725-.866,17.54-1.732,25.91-4.352,9.236-2.886,17.784-7.837,27.2-10.013,10.369-2.42,21.159-1.377,31.794-1.021,14.12.466,28.53-.333,41.829-5.084,13.321-4.729,25.533-13.81,31.727-26.509,3.264-6.727,4.929-14.454,10.013-19.915,5.284-5.662,13.343-7.882,19.094-13.033,8.548-7.638,10.3-21.78,3.907-31.283A6.7,6.7,0,0,0,706.766,360.694Z" transform="translate(-175.923 -262.268)" fill="#fff" opacity="0.3"/>
    <rect id="Rectangle_81" data-name="Rectangle 81" width="25.821" height="3.464" transform="translate(574.715 261.789)" fill="#4188e4" opacity="0.3"/>
    <g id="Group_217" data-name="Group 217" transform="translate(383.088 237.212)" opacity="0.2">
      <rect id="Rectangle_82" data-name="Rectangle 82" width="10.368" height="13.41" transform="translate(0 53.219)" fill="#4188e4"/>
      <rect id="Rectangle_83" data-name="Rectangle 83" width="10.368" height="13.41" transform="translate(0 96.402)" fill="#4188e4"/>
      <rect id="Rectangle_84" data-name="Rectangle 84" width="10.368" height="13.41" transform="translate(15.919 53.219)" fill="#4188e4"/>
      <rect id="Rectangle_85" data-name="Rectangle 85" width="10.368" height="13.41" transform="translate(31.838 53.219)" fill="#4188e4"/>
      <rect id="Rectangle_86" data-name="Rectangle 86" width="10.368" height="13.41" transform="translate(31.838 125.598)" fill="#4188e4"/>
      <rect id="Rectangle_87" data-name="Rectangle 87" width="10.368" height="13.41" transform="translate(15.919 74.644)" fill="#4188e4"/>
      <rect id="Rectangle_88" data-name="Rectangle 88" width="10.368" height="13.41" transform="translate(15.919 148.511)" fill="#4188e4"/>
      <rect id="Rectangle_89" data-name="Rectangle 89" width="10.368" height="13.41" transform="translate(15.919 96.402)" fill="#4188e4"/>
      <rect id="Rectangle_90" data-name="Rectangle 90" width="10.368" height="13.41" transform="translate(45.515 96.402)" fill="#4188e4"/>
      <rect id="Rectangle_91" data-name="Rectangle 91" width="10.368" height="13.41" transform="translate(45.515 148.511)" fill="#4188e4"/>
      <rect id="Rectangle_92" data-name="Rectangle 92" width="10.368" height="13.41" transform="translate(58.547 53.219)" fill="#4188e4"/>
      <rect id="Rectangle_93" data-name="Rectangle 93" width="5.75" height="7.46" transform="translate(142.538)" fill="#4188e4"/>
      <rect id="Rectangle_94" data-name="Rectangle 94" width="5.75" height="7.46" transform="translate(154.527)" fill="#4188e4"/>
      <rect id="Rectangle_95" data-name="Rectangle 95" width="5.75" height="7.46" transform="translate(142.538 13.144)" fill="#4188e4"/>
      <rect id="Rectangle_96" data-name="Rectangle 96" width="5.75" height="7.46" transform="translate(166.494 13.144)" fill="#4188e4"/>
      <rect id="Rectangle_97" data-name="Rectangle 97" width="5.75" height="7.46" transform="translate(154.527 26.31)" fill="#4188e4"/>
      <rect id="Rectangle_98" data-name="Rectangle 98" width="5.75" height="7.46" transform="translate(166.494 26.31)" fill="#4188e4"/>
      <rect id="Rectangle_99" data-name="Rectangle 99" width="5.75" height="7.46" transform="translate(142.538 39.476)" fill="#4188e4"/>
      <rect id="Rectangle_100" data-name="Rectangle 100" width="5.75" height="7.46" transform="translate(166.494 39.476)" fill="#4188e4"/>
      <rect id="Rectangle_101" data-name="Rectangle 101" width="5.75" height="7.46" transform="translate(142.538 52.619)" fill="#4188e4"/>
      <rect id="Rectangle_102" data-name="Rectangle 102" width="5.75" height="7.46" transform="translate(154.527 52.619)" fill="#4188e4"/>
      <rect id="Rectangle_103" data-name="Rectangle 103" width="5.75" height="7.46" transform="translate(166.494 65.785)" fill="#4188e4"/>
      <rect id="Rectangle_104" data-name="Rectangle 104" width="5.75" height="7.46" transform="translate(142.538 92.095)" fill="#4188e4"/>
      <rect id="Rectangle_105" data-name="Rectangle 105" width="5.75" height="7.46" transform="translate(235.787 70.092)" fill="#4188e4"/>
      <rect id="Rectangle_106" data-name="Rectangle 106" width="5.75" height="7.46" transform="translate(267.759 70.092)" fill="#4188e4"/>
      <rect id="Rectangle_107" data-name="Rectangle 107" width="5.75" height="7.46" transform="translate(251.351 49.844)" fill="#4188e4"/>
      <rect id="Rectangle_108" data-name="Rectangle 108" width="5.75" height="7.46" transform="translate(343.868 61.1)" fill="#4188e4"/>
      <rect id="Rectangle_109" data-name="Rectangle 109" width="5.75" height="7.46" transform="translate(363.117 61.1)" fill="#4188e4"/>
      <rect id="Rectangle_110" data-name="Rectangle 110" width="5.75" height="7.46" transform="translate(363.117 74.4)" fill="#4188e4"/>
      <rect id="Rectangle_111" data-name="Rectangle 111" width="5.75" height="7.46" transform="translate(343.868 87.677)" fill="#4188e4"/>
      <rect id="Rectangle_112" data-name="Rectangle 112" width="5.75" height="7.46" transform="translate(363.117 87.677)" fill="#4188e4"/>
      <rect id="Rectangle_113" data-name="Rectangle 113" width="5.75" height="7.46" transform="translate(343.868 100.976)" fill="#4188e4"/>
      <rect id="Rectangle_114" data-name="Rectangle 114" width="5.75" height="7.46" transform="translate(353.481 114.253)" fill="#4188e4"/>
      <rect id="Rectangle_115" data-name="Rectangle 115" width="5.75" height="7.46" transform="translate(363.117 114.253)" fill="#4188e4"/>
      <rect id="Rectangle_116" data-name="Rectangle 116" width="5.75" height="7.46" transform="translate(363.117 127.552)" fill="#4188e4"/>
      <rect id="Rectangle_117" data-name="Rectangle 117" width="5.75" height="7.46" transform="translate(343.868 140.829)" fill="#4188e4"/>
      <rect id="Rectangle_118" data-name="Rectangle 118" width="5.75" height="7.46" transform="translate(353.481 140.829)" fill="#4188e4"/>
      <rect id="Rectangle_119" data-name="Rectangle 119" width="5.75" height="7.46" transform="translate(263.718 49.844)" fill="#4188e4"/>
      <rect id="Rectangle_120" data-name="Rectangle 120" width="5.75" height="7.46" transform="translate(235.787 85.101)" fill="#4188e4"/>
      <rect id="Rectangle_121" data-name="Rectangle 121" width="5.75" height="7.46" transform="translate(246.445 85.101)" fill="#4188e4"/>
      <rect id="Rectangle_122" data-name="Rectangle 122" width="5.75" height="7.46" transform="translate(235.787 100.088)" fill="#4188e4"/>
      <rect id="Rectangle_123" data-name="Rectangle 123" width="5.75" height="7.46" transform="translate(257.102 100.088)" fill="#4188e4"/>
      <rect id="Rectangle_124" data-name="Rectangle 124" width="5.75" height="7.46" transform="translate(267.759 100.088)" fill="#4188e4"/>
      <rect id="Rectangle_125" data-name="Rectangle 125" width="5.75" height="7.46" transform="translate(246.445 115.096)" fill="#4188e4"/>
      <rect id="Rectangle_126" data-name="Rectangle 126" width="5.75" height="7.46" transform="translate(235.787 130.105)" fill="#4188e4"/>
      <rect id="Rectangle_127" data-name="Rectangle 127" width="5.75" height="7.46" transform="translate(257.102 130.105)" fill="#4188e4"/>
      <rect id="Rectangle_128" data-name="Rectangle 128" width="5.75" height="7.46" transform="translate(267.759 130.105)" fill="#4188e4"/>
      <rect id="Rectangle_129" data-name="Rectangle 129" width="5.75" height="7.46" transform="translate(235.787 160.1)" fill="#4188e4"/>
      <rect id="Rectangle_130" data-name="Rectangle 130" width="5.75" height="7.46" transform="translate(257.102 160.1)" fill="#4188e4"/>
      <rect id="Rectangle_131" data-name="Rectangle 131" width="10.368" height="13.41" transform="translate(58.547 125.598)" fill="#4188e4"/>
      <rect id="Rectangle_132" data-name="Rectangle 132" width="31.771" height="3.464" transform="translate(91.851 56.727)" fill="#4188e4"/>
      <rect id="Rectangle_133" data-name="Rectangle 133" width="25.821" height="3.464" transform="translate(191.627 46.958)" fill="#4188e4"/>
      <rect id="Rectangle_134" data-name="Rectangle 134" width="25.821" height="3.464" transform="translate(191.627 54.395)" fill="#4188e4"/>
      <rect id="Rectangle_135" data-name="Rectangle 135" width="25.821" height="3.464" transform="translate(191.627 76.775)" fill="#4188e4"/>
      <rect id="Rectangle_136" data-name="Rectangle 136" width="25.821" height="3.464" transform="translate(295.09 70.092)" fill="#4188e4"/>
      <rect id="Rectangle_137" data-name="Rectangle 137" width="25.821" height="3.464" transform="translate(295.09 77.552)" fill="#4188e4"/>
      <rect id="Rectangle_138" data-name="Rectangle 138" width="25.821" height="3.464" transform="translate(295.09 92.472)" fill="#4188e4"/>
      <rect id="Rectangle_139" data-name="Rectangle 139" width="25.821" height="3.464" transform="translate(295.09 114.83)" fill="#4188e4"/>
      <rect id="Rectangle_140" data-name="Rectangle 140" width="25.821" height="3.464" transform="translate(295.09 129.728)" fill="#4188e4"/>
      <rect id="Rectangle_141" data-name="Rectangle 141" width="25.821" height="3.464" transform="translate(295.09 144.647)" fill="#4188e4"/>
      <rect id="Rectangle_142" data-name="Rectangle 142" width="25.821" height="3.464" transform="translate(295.09 159.545)" fill="#4188e4"/>
      <rect id="Rectangle_143" data-name="Rectangle 143" width="25.821" height="3.464" transform="translate(191.627 99.133)" fill="#4188e4"/>
      <rect id="Rectangle_144" data-name="Rectangle 144" width="25.821" height="3.464" transform="translate(191.627 114.031)" fill="#4188e4"/>
      <rect id="Rectangle_145" data-name="Rectangle 145" width="31.771" height="3.464" transform="translate(91.851 66.651)" fill="#4188e4"/>
      <rect id="Rectangle_146" data-name="Rectangle 146" width="31.771" height="3.464" transform="translate(91.851 76.553)" fill="#4188e4"/>
      <rect id="Rectangle_147" data-name="Rectangle 147" width="31.771" height="3.464" transform="translate(91.851 96.402)" fill="#4188e4"/>
      <rect id="Rectangle_148" data-name="Rectangle 148" width="31.771" height="3.464" transform="translate(91.851 116.229)" fill="#4188e4"/>
      <rect id="Rectangle_149" data-name="Rectangle 149" width="31.771" height="3.464" transform="translate(91.851 126.153)" fill="#4188e4"/>
      <rect id="Rectangle_150" data-name="Rectangle 150" width="31.771" height="3.464" transform="translate(91.851 145.98)" fill="#4188e4"/>
      <rect id="Rectangle_151" data-name="Rectangle 151" width="31.771" height="3.464" transform="translate(91.851 165.806)" fill="#4188e4"/>
    </g>
    <rect id="Rectangle_152" data-name="Rectangle 152" width="25.821" height="3.464" transform="translate(574.715 269.249)" fill="#4188e4" opacity="0.3"/>
    <path id="Path_128" data-name="Path 128" d="M896.048,1002.123l7.46,14.809,7.837-14.609a8.382,8.382,0,0,0-7.238-11.723h-.533A8.365,8.365,0,0,0,896.048,1002.123Zm3.819-3.064a3.863,3.863,0,1,1,3.819,3.908A3.866,3.866,0,0,1,899.867,999.059Z" transform="translate(-505.345 -757.762)" fill="#ff5b7e"/>
    <g id="Group_218" data-name="Group 218" transform="translate(273.044 354.678)">
      <path id="Path_129" data-name="Path 129" d="M380.035,1570.774a7.814,7.814,0,0,0,6.128-6.305c1.643-8.992,6.838-24.8,23.09-25.089,19.138-.333,22.535,14.01,22.091,24.445a4.453,4.453,0,0,0,4.618,4.663c5.661-.244,13.921,1.088,13.921,10.724,0,0,5.129,18.184-9.436,22.558s-21.581-1.377-27.819,4.462c-5.75,5.4-24.556,11.012-33.636-1.288a19.5,19.5,0,0,0-5.173-4.84c-3.4-2.2-7.882-7.571-4.152-19.849a13.67,13.67,0,0,1,10.124-9.436C379.857,1570.8,379.946,1570.8,380.035,1570.774Z" transform="translate(-368.259 -1539.374)" fill="#70c0fd"/>
      <path id="Path_130" data-name="Path 130" d="M466.037,1624.178a26.07,26.07,0,0,0-3.708,3.486c-.289.333-.555.666-.844,1.021a13.657,13.657,0,0,1,.6-3.73c.355-.955,1.354-2.575,2.575-4.862a34.924,34.924,0,0,1,4.729-4.884,18.27,18.27,0,0,1,6.305-3.686,18.345,18.345,0,0,0-6.838,2.753c-.666.422-1.332.866-2,1.354a55.163,55.163,0,0,0,4.418-27.93,94.581,94.581,0,0,1-2.109,15.852,21.261,21.261,0,0,0-1.177-3.53,29.367,29.367,0,0,0-3.619-6.239,29.531,29.531,0,0,1,2.886,6.572c1.732,5.95.6,7.948-.333,9.991-2.775,6.017-6.15,10.369-7.593,13.9-.533-1.155-1.088-2.287-1.643-3.419-1.2-2.42-2.42-4.8-3.686-7.171-.2-.377-.422-.755-.622-1.155a18.827,18.827,0,0,1-.644-2.864q-.2-1.266-.333-2.531a42.712,42.712,0,0,1-.178-5.151,40.272,40.272,0,0,0-.289,5.173c0,.866.044,1.732.111,2.62a2.716,2.716,0,0,0,.044.422c0-.022-.022-.022-.022-.044-.666-1.154-1.332-2.309-2.043-3.441s-1.421-2.243-2.176-3.331a37.2,37.2,0,0,0-2.4-3.108,36.454,36.454,0,0,1,2.2,3.264c.688,1.132,1.332,2.287,1.954,3.464s1.221,2.375,1.821,3.574,1.154,2.42,1.732,3.619a4.4,4.4,0,0,0,.222.466c-.377-.111-.733-.222-1.354-.377a40.064,40.064,0,0,0-7.438-1.088,40.036,40.036,0,0,1,7.238,1.865c.688.244,1.465.577,2.131.888.844,1.865,1.643,3.73,2.42,5.617.511,1.243,1.021,2.487,1.51,3.73.244.622.488,1.243.733,1.887v.022a3.287,3.287,0,0,0,.022.466c.089,1.11.289,3.8.533,7.216a22.219,22.219,0,0,0-5.995-2.064,49.438,49.438,0,0,0-7.926-.533,6.514,6.514,0,0,1-1.243-1.132,9.859,9.859,0,0,1-2.287-5.106,10.446,10.446,0,0,0,1.909,5.506c.178.244.355.467.533.688-1.066-.044-2.109-.133-3.153-.266a22.454,22.454,0,0,1-3.4-.688,9.4,9.4,0,0,1-3.153-1.6,9.963,9.963,0,0,0,3.064,1.865,22.056,22.056,0,0,0,3.131.933c-.222.044-.422.067-.644.111-.777.133-1.554.289-2.331.489s-1.532.4-2.287.666a16.068,16.068,0,0,0-2.2.955,14.038,14.038,0,0,1,2.242-.755c.755-.2,1.532-.333,2.309-.466.777-.111,1.554-.222,2.331-.289s3-.155,3.774-.155h0c3.974.533,6.394.555,9.081,1.31a20.886,20.886,0,0,1,6.194,2.842c.067.044.155.111.222.155.577,9.281,1.088,21.98-.133,25.2-1.821,4.8,9.192,3.064,9.192,3.064s-3.708-2.065-5.151-12.833a185.432,185.432,0,0,1-1.865-20.493c.044-.111.111-.222.155-.333.178-.377.355-.733.555-1.088a20.5,20.5,0,0,1,1.31-2.087,24.258,24.258,0,0,1,3.2-3.708,26.474,26.474,0,0,1,8.015-5.2A25.962,25.962,0,0,0,466.037,1624.178Z" transform="translate(-418.782 -1576.97)" fill="#07085b"/>
    </g>
    <g id="Group_219" data-name="Group 219" transform="translate(352.143 310.21)">
      <path id="Path_131" data-name="Path 131" d="M768.658,1432.963a36.879,36.879,0,0,0,20.914-5.95c5-3.264,9.658-8.059,10.524-14.809,1.976-15.453-6.927-14.942-9.1-21.248s4.285-9.125,1.487-20.6c-1.51-6.172-6.261-8.837-13.676-18.761-7.416-9.9-16.385-14.987-22.935-11.3s-6.283,11.656-11.168,14.3c-4.862,2.642-12.367,11.878-9.5,29.462,2.864,17.562-16.474,11.012-8.9,31.349C731.869,1430.3,756.114,1432.719,768.658,1432.963Z" transform="translate(-724.526 -1339.09)" fill="#70c0fd"/>
      <path id="Path_132" data-name="Path 132" d="M821.517,1519.02c.688,9.769,1.688,48.645.244,52.02-2.176,5.04,9.281-1.244,9.281-1.244s-3.042-23.2-4.818-34.546c-.777-5.04-2.22-20.226-2.242-21.558.067-.111.111-.244.178-.355.2-.4.444-.777.666-1.155a21.087,21.087,0,0,1,1.576-2.2,27.758,27.758,0,0,1,3.841-3.907,32.634,32.634,0,0,1,9.658-5.462,33.238,33.238,0,0,0-10.368,4.529,29.221,29.221,0,0,0-4.463,3.664c-.355.355-.688.71-1,1.088a13.37,13.37,0,0,1,.711-3.907c.422-1,1.621-2.709,3.108-5.107a40.717,40.717,0,0,1,5.706-5.151,23.563,23.563,0,0,1,7.615-3.885,24.307,24.307,0,0,0-8.237,2.886c-.822.444-1.621.91-2.42,1.443a51.414,51.414,0,0,0,5.328-29.373,88.316,88.316,0,0,1-2.531,16.674,23.185,23.185,0,0,0-1.4-3.708,29.765,29.765,0,0,0-4.352-6.55,31.03,31.03,0,0,1,3.486,6.905c2.02,6.061.821,8.215-.4,10.5-3.353,6.327-7.416,10.9-9.147,14.609-.644-1.2-1.31-2.4-1.976-3.6-1.443-2.531-2.908-5.062-4.44-7.527-.244-.4-.488-.8-.755-1.2a13.124,13.124,0,0,1-.488-1.709c-.111-.444-.2-.866-.266-1.31-.155-.888-.311-1.776-.4-2.664s-.177-1.8-.2-2.708c-.044-.955-.022-2,0-2.709-.089.688-.222,1.754-.266,2.709-.067.91-.089,1.821-.089,2.731s.044,1.821.111,2.753c.022.155.022.311.044.444,0-.022-.022-.022-.022-.044-.8-1.221-1.621-2.42-2.464-3.619-.844-1.177-1.71-2.354-2.62-3.508a40.358,40.358,0,0,0-2.886-3.264,40.58,40.58,0,0,1,2.664,3.441c.822,1.2,1.6,2.42,2.354,3.641.755,1.244,1.488,2.487,2.2,3.752s1.4,2.531,2.087,3.819c.089.156.178.333.266.489a40.588,40.588,0,0,0-4.618-.955,56.762,56.762,0,0,0-5.972-.6,51.546,51.546,0,0,1,5.861,1.155,38.434,38.434,0,0,1,5.44,1.754c1,1.954,1.976,3.93,2.931,5.906.622,1.31,1.243,2.62,1.821,3.929a8.557,8.557,0,0,1,.71,1.6C820.94,1510.028,821.517,1519.02,821.517,1519.02Z" transform="translate(-786.199 -1438.446)" fill="#07085b"/>
    </g>
    <path id="Path_133" data-name="Path 133" d="M2426.6,1043.479l7.393,14.831,7.882-14.564A8.375,8.375,0,0,0,2434.68,1032h-.533A8.362,8.362,0,0,0,2426.6,1043.479Zm3.841-3.042a3.864,3.864,0,1,1,3.8,3.93A3.866,3.866,0,0,1,2430.439,1040.437Z" transform="translate(-1696.091 -789.971)" fill="#07085b"/>
    <path id="Path_134" data-name="Path 134" d="M652.5,1846.525s.644-10.657,9.924-9.68c0,0,12.633-20.137,25.843,8.281,0,0,11.945-6.461,16.341,7.571,0,0,7.349-13.7,17.806-9.169s14.032,17.007,14.032,17.007l-77.2,1.643Z" transform="translate(-316.348 -1410.737)" fill="#70c0fd"/>
    <g id="Group_229" data-name="Group 229" transform="translate(411.973 188.284)">
      <path id="Path_135" data-name="Path 135" d="M1633.341,960.668c-.377.266-7.194,12.478-7.194,12.478L1617,965.109l8.881-14.809,7.438,4.174v6.194Z" transform="translate(-1478.68 -914.694)" fill="#ffc0bb"/>
      <path id="Path_136" data-name="Path 136" d="M1633.9,958.77c1.132,3.2,3.441,7.416,8.059,9.547,1.954-3.464,4.307-7.571,4.53-7.726v-6.217l-7.438-4.174Z" transform="translate(-1491.828 -914.616)" fill="#f99893"/>
      <path id="Path_137" data-name="Path 137" d="M1238.865,1551.859s-2.6-1.821-5.062,4.019.844,8.17.844,8.17,4.263-3.153,4.218-3.752-.2-8.148-.2-8.148Z" transform="translate(-1179.851 -1382.484)" fill="#fff"/>
      <path id="Path_138" data-name="Path 138" d="M1249.351,1542.536s-2.087-1.288-4.44,2.4a24.071,24.071,0,0,0-2.62,6.416c-3.153,11.234,0,11.234,0,11.234l5.284-2.242s5.062-12.877,4.751-13.943C1252.015,1545.378,1249.351,1542.536,1249.351,1542.536Z" transform="translate(-1186.074 -1375.271)" fill="#ff5b7e"/>
      <path id="Path_139" data-name="Path 139" d="M1166.9,1413h-87.854a1.241,1.241,0,0,0-1.243,1.243v.955a1.242,1.242,0,0,0,1.243,1.244H1166.9a1.241,1.241,0,0,0,1.243-1.244v-.955A1.241,1.241,0,0,0,1166.9,1413Z" transform="translate(-1059.194 -1274.664)" fill="#283f56"/>
      <rect id="Rectangle_153" data-name="Rectangle 153" width="6.061" height="16.074" transform="translate(85.9 140.068)" fill="#283f56"/>
      <path id="Path_140" data-name="Path 140" d="M1172.562,1421.431h-2.021a2.634,2.634,0,0,1-2.642-2.642V1406.6h7.3v12.188A2.634,2.634,0,0,1,1172.562,1421.431Z" transform="translate(-1129.29 -1269.685)" fill="#283f56"/>
      <path id="Path_141" data-name="Path 141" d="M1188.731,1457c.866,1,22.136,21,22.136,21l-1.8,2.464L1186.6,1458.31Z" transform="translate(-1143.839 -1308.895)" fill="#283f56"/>
      <path id="Path_142" data-name="Path 142" d="M2054.221,1623.2h1.2a4.487,4.487,0,0,1,4.485,4.485v5.772h-5.551s-2.465-4.263-3.375-3.375C2050.114,1630.993,2054.221,1623.2,2054.221,1623.2Z" transform="translate(-1816.214 -1438.195)" fill="#ffe5b6"/>
      <circle id="Ellipse_14" data-name="Ellipse 14" cx="32.571" cy="32.571" r="32.571" transform="translate(60.545 196.106)" fill="#1a1a1a"/>
      <circle id="Ellipse_15" data-name="Ellipse 15" cx="14.676" cy="14.676" r="14.676" transform="translate(78.44 214.001)" fill="#9e9da2"/>
      <circle id="Ellipse_16" data-name="Ellipse 16" cx="32.571" cy="32.571" r="32.571" transform="translate(214.962 196.106)" fill="#1a1a1a"/>
      <circle id="Ellipse_17" data-name="Ellipse 17" cx="14.676" cy="14.676" r="14.676" transform="translate(232.857 214.001)" fill="#9e9da2"/>
      <path id="Path_143" data-name="Path 143" d="M1295.125,1726.415h-76.953a6.77,6.77,0,0,1-6.772-6.772v-6.972a6.77,6.77,0,0,1,6.772-6.772h76.953Z" transform="translate(-1163.132 -1502.534)" fill="#283f56"/>
      <path id="Path_144" data-name="Path 144" d="M1414.894,1490.033h-64.075a4.415,4.415,0,0,1-4.418-4.418v-3.4a4.416,4.416,0,0,1,4.418-4.418h64.075a4.416,4.416,0,0,1,4.418,4.418v3.4A4.415,4.415,0,0,1,1414.894,1490.033Z" transform="translate(-1268.159 -1325.077)" fill="#ff5b7e"/>
      <path id="Path_145" data-name="Path 145" d="M1337.049,1410.615s-5.839,3.219-10.546,16.7-3.708,33.814,25.621,35.39h45.048l4.485-7.9s-3.819-53.774-12.589-77.6H1403.9s4.485,45.781,20.2,51.953a3.965,3.965,0,0,1,2.487,3.708v9.059l-23.823,30.794h-78.418s-18.428,1.621-22.913-29.662l-53.174-.822a4.39,4.39,0,0,1-4.13-5.661c1.665-5.4,5.04-13.01,11.168-14.7C1265.025,1419.229,1337.049,1410.615,1337.049,1410.615Z" transform="translate(-1188.45 -1246.812)" fill="#333"/>
      <path id="Path_146" data-name="Path 146" d="M1272.181,1540.733c.066.111.156.244.222.355h76.4l.777-1.8c4.2-9.214,8.5-11.59,8.5-11.59H1279.73A8.685,8.685,0,0,0,1272.181,1540.733Z" transform="translate(-1209.482 -1363.898)" fill="#283f56"/>
      <path id="Path_147" data-name="Path 147" d="M1241.792,1594.608h57.082a8.925,8.925,0,0,0,8.437-11.834c-3.041-8.748-10.1-18.161-27.508-19.76-22.469-2.087-36.057,15.875-41.451,25.844A3.909,3.909,0,0,0,1241.792,1594.608Z" transform="translate(-1183.733 -1391.242)" fill="#ff5b7e"/>
      <path id="Path_148" data-name="Path 148" d="M1902.685,1692.771l17.517-28.308s8.992-6.972,26.732-3.375c11.034,2.242,17.54,9.591,20.892,14.853a3.66,3.66,0,0,1-3.064,5.639h-27a27.351,27.351,0,0,0-21.292,10.191l-.688.866a19.76,19.76,0,0,1-15.364,7.349h0a15.775,15.775,0,0,1-10.857-4.307l-3.064-2.886h16.186Z" transform="translate(-1688.345 -1466.87)" fill="#ff5b7e"/>
      <path id="Path_149" data-name="Path 149" d="M1882.688,1237.049a3.778,3.778,0,0,0-4.507-3.708c-9.947,1.954-20.382,9.924-20.382,19.449s10.435,17.5,20.382,19.449a3.778,3.778,0,0,0,4.507-3.708Z" transform="translate(-1666.017 -1134.836)" fill="#ff5b7e"/>
      <path id="Path_150" data-name="Path 150" d="M1969.9,1250.7V1282a16.421,16.421,0,0,0,0-31.3Z" transform="translate(-1753.229 -1148.398)" fill="#fff"/>
      <rect id="Rectangle_154" data-name="Rectangle 154" width="77.464" height="46.713" transform="translate(25.044 91.645)" fill="#ff5b7e"/>
      <rect id="Rectangle_155" data-name="Rectangle 155" width="80.749" height="5.884" transform="translate(23.401 85.761)" fill="#d12a56"/>
      <circle id="Ellipse_18" data-name="Ellipse 18" cx="1.599" cy="1.599" r="1.599" transform="translate(40.652 146.218)" fill="#282828"/>
      <path id="Path_151" data-name="Path 151" d="M1361.055,1619.854h-36.878a.787.787,0,0,1-.777-.777v-.6a.787.787,0,0,1,.777-.777h36.878a.787.787,0,0,1,.777.777v.6A.786.786,0,0,1,1361.055,1619.854Z" transform="translate(-1250.266 -1433.916)" fill="#333"/>
      <path id="Path_152" data-name="Path 152" d="M1361.055,1644.254h-36.878a.787.787,0,0,1-.777-.777v-.6a.787.787,0,0,1,.777-.777h36.878a.787.787,0,0,1,.777.777v.6A.8.8,0,0,1,1361.055,1644.254Z" transform="translate(-1250.266 -1452.898)" fill="#333"/>
      <path id="Path_153" data-name="Path 153" d="M1760.369,1632.277l-2.82,30.24-2.4,4.352-4.352-3.131.089-32.237Z" transform="translate(-1582.774 -1444.652)" fill="#ffc0bb"/>
      <path id="Path_154" data-name="Path 154" d="M1838.87,1622.2l-1.4,33.081-2.42,4.352-4.352-3.131.089-32.238Z" transform="translate(-1644.934 -1437.417)" fill="#ffc0bb"/>
      <g id="Group_223" data-name="Group 223" transform="translate(184.567 215.4)">
        <path id="Path_155" data-name="Path 155" d="M1844.349,1793.254l-18.783.067a.257.257,0,0,1-.267-.267v-1.421a.257.257,0,0,1,.267-.267l18.783-.066a.256.256,0,0,1,.266.266v1.421A.257.257,0,0,1,1844.349,1793.254Z" transform="translate(-1825.3 -1784.373)" fill="#daeef7"/>
        <path id="Path_156" data-name="Path 156" d="M1826.993,1761.188l-.622,5.4c-.066.666.289,1.265.777,1.265l17.007-.067a1.244,1.244,0,0,0,1.11-.8,2.3,2.3,0,0,0-.489-2.4c-1.532-2.154-6.527-2.664-8.992-4.485l-7.926.022C1827.437,1760.144,1827.082,1760.588,1826.993,1761.188Z" transform="translate(-1826.127 -1760.1)" fill="#ff5b7e"/>
        <g id="Group_220" data-name="Group 220" transform="translate(8.368 0.504)">
          <path id="Path_157" data-name="Path 157" d="M1863.127,1765.041h0a.333.333,0,0,1-.089-.444c.333-.732,1.376-2.553,3.486-2.176.133.022.2.177.178.355h0c-.022.155-.133.267-.244.244a2.845,2.845,0,0,0-3.064,1.887A.2.2,0,0,1,1863.127,1765.041Z" transform="translate(-1862.992 -1762.371)" fill="#daeef7"/>
        </g>
        <g id="Group_221" data-name="Group 221" transform="translate(10.122 1.192)">
          <path id="Path_158" data-name="Path 158" d="M1871.027,1768.141h0a.333.333,0,0,1-.089-.444c.333-.733,1.376-2.553,3.486-2.176.133.022.2.177.178.355h0c-.022.155-.133.267-.244.244a2.845,2.845,0,0,0-3.064,1.887A.192.192,0,0,1,1871.027,1768.141Z" transform="translate(-1870.892 -1765.47)" fill="#daeef7"/>
        </g>
        <g id="Group_222" data-name="Group 222" transform="translate(11.765 1.836)">
          <path id="Path_159" data-name="Path 159" d="M1878.427,1771.041h0a.334.334,0,0,1-.089-.444c.333-.732,1.377-2.553,3.486-2.176.134.022.2.178.178.355h0c-.022.156-.133.266-.244.244a2.844,2.844,0,0,0-3.064,1.887A.192.192,0,0,1,1878.427,1771.041Z" transform="translate(-1878.292 -1768.37)" fill="#daeef7"/>
        </g>
        <path id="Path_160" data-name="Path 160" d="M1831.7,1778.381c-1.354-4.351-3.664-4.84-4.929-4.729l-.4,3.486c-.066.666.289,1.265.777,1.265Z" transform="translate(-1826.128 -1770.633)" fill="#e87b50" opacity="0.3"/>
      </g>
      <path id="Path_161" data-name="Path 161" d="M1361.055,1668.554h-36.878a.787.787,0,0,1-.777-.777v-.6a.786.786,0,0,1,.777-.777h36.878a.786.786,0,0,1,.777.777v.6A.8.8,0,0,1,1361.055,1668.554Z" transform="translate(-1250.266 -1471.804)" fill="#333"/>
      <path id="Path_162" data-name="Path 162" d="M1793.417,1434.5c2.22.178,11.456,3.93,12.655,10.613s0,58.525,0,58.525h-10.257s-8.215-41.074-8.215-42.273S1793.417,1434.5,1793.417,1434.5Z" transform="translate(-1611.403 -1291.39)" fill="#282828"/>
      <path id="Path_163" data-name="Path 163" d="M1496.3,1367.5c.178.51-2.265,23.446,21.114,25.333s36.9,4.973,36.9,4.973-3.241,51.842-3.086,54.418c0,0,8.037,1.376,11.456.866,0,0,18.317-57.5,13.01-69.315s-47.579-16.252-47.579-16.252H1496.3Z" transform="translate(-1384.773 -1239.266)" fill="#333"/>
      <path id="Path_164" data-name="Path 164" d="M1625.049,1181.333s.244,11.168.977,12.189c.733,1.043,36.167,14.565,36.167,14.565l-5.817,6.572-26.087-7.46s-18.694-6.7-18.495-7.193,1.221-7.349,2.154-10.035a81.645,81.645,0,0,1,4.418-8.77Z" transform="translate(-1474.629 -1094.329)" fill="#f9b7b4"/>
      <path id="Path_165" data-name="Path 165" d="M1516.309,1006.344s-23.667,8.592-26.354,55.306l-1.155,26.576s26.953,11.545,42.362,1.532c0,0,1.554-47.424,3.175-64.742a8.86,8.86,0,0,0-3.175-7.66C1525.989,1013.071,1517.175,1005.944,1516.309,1006.344Z" transform="translate(-1378.943 -958.282)" fill="#feb546"/>
      <path id="Path_166" data-name="Path 166" d="M1568.667,1150.221s-5.795,23.912,2.309,30.484c5.04,4.107,52.086,12.145,52.086,12.145l3.041-7.327s-37.455-13.366-39.7-14.92,1.51-22,1.51-22Z" transform="translate(-1439.517 -1068.967)" fill="#ffc0bb"/>
      <path id="Path_167" data-name="Path 167" d="M1581.936,1038.809a7.366,7.366,0,0,0-7.771-1.266c-3.619,1.532-8.792,5.861-11.59,18.072l-2.375,10.524s17.584,4.307,22.979,4.063l2.753-16.274S1587.509,1043.76,1581.936,1038.809Z" transform="translate(-1434.491 -982.111)" fill="#f4a640"/>
      <path id="Path_168" data-name="Path 168" d="M1253.785,1176.2H1239.4l-27,52.575h14.409l26.976-52.575Z" transform="translate(-1163.91 -1090.439)" fill="#333"/>
      <g id="Group_224" data-name="Group 224" transform="translate(60.458 102.814)">
        <path id="Path_169" data-name="Path 169" d="M1277.607,1269.192l-9.658-4.951a3.017,3.017,0,0,1-1.31-4.063l2.842-5.528a3.017,3.017,0,0,1,4.063-1.31l9.658,4.951a3.018,3.018,0,0,1,1.31,4.063l-2.842,5.528A3.017,3.017,0,0,1,1277.607,1269.192Zm-4.862-14.3a1.266,1.266,0,0,0-1.687.533l-2.842,5.528a1.266,1.266,0,0,0,.533,1.687l9.658,4.951a1.266,1.266,0,0,0,1.687-.533l2.842-5.529a1.265,1.265,0,0,0-.533-1.687Z" transform="translate(-1266.308 -1253.008)" fill="#ffe5b6"/>
      </g>
      <path id="Path_170" data-name="Path 170" d="M1615.139,915.8a4.743,4.743,0,0,1-2.154,6.505,5.159,5.159,0,0,1-6.483-2.886,4.743,4.743,0,0,1,2.154-6.505A5.16,5.16,0,0,1,1615.139,915.8Z" transform="translate(-1470.114 -885.345)" fill="#ffc0bb"/>
      <g id="Group_228" data-name="Group 228" transform="translate(166.383 215.4)">
        <path id="Path_171" data-name="Path 171" d="M1762.45,1793.254l-18.783.067a.256.256,0,0,1-.266-.267v-1.421a.257.257,0,0,1,.266-.267l18.783-.066a.256.256,0,0,1,.266.266v1.421A.257.257,0,0,1,1762.45,1793.254Z" transform="translate(-1743.4 -1784.373)" fill="#daeef7"/>
        <path id="Path_172" data-name="Path 172" d="M1745.093,1761.188l-.622,5.4c-.067.666.289,1.265.777,1.265l17.007-.067a1.244,1.244,0,0,0,1.11-.8,2.305,2.305,0,0,0-.489-2.4c-1.532-2.154-6.527-2.664-8.992-4.485l-7.927.022A1.091,1.091,0,0,0,1745.093,1761.188Z" transform="translate(-1744.228 -1760.1)" fill="#ff5b7e"/>
        <g id="Group_225" data-name="Group 225" transform="translate(8.368 0.504)">
          <path id="Path_173" data-name="Path 173" d="M1781.227,1765.041h0a.333.333,0,0,1-.089-.444c.333-.732,1.376-2.553,3.486-2.176.133.022.2.177.177.355h0c-.022.155-.133.267-.244.244a2.845,2.845,0,0,0-3.064,1.887A.2.2,0,0,1,1781.227,1765.041Z" transform="translate(-1781.092 -1762.371)" fill="#daeef7"/>
        </g>
        <g id="Group_226" data-name="Group 226" transform="translate(10.122 1.192)">
          <path id="Path_174" data-name="Path 174" d="M1789.127,1768.141h0a.333.333,0,0,1-.089-.444c.333-.733,1.376-2.553,3.486-2.176.133.022.2.177.177.355h0c-.022.155-.133.267-.244.244a2.845,2.845,0,0,0-3.064,1.887A.192.192,0,0,1,1789.127,1768.141Z" transform="translate(-1788.992 -1765.47)" fill="#daeef7"/>
        </g>
        <g id="Group_227" data-name="Group 227" transform="translate(11.765 1.836)">
          <path id="Path_175" data-name="Path 175" d="M1796.527,1771.041h0a.333.333,0,0,1-.089-.444c.333-.732,1.376-2.553,3.486-2.176.133.022.2.178.178.355h0c-.022.156-.133.266-.245.244a2.844,2.844,0,0,0-3.064,1.887A.192.192,0,0,1,1796.527,1771.041Z" transform="translate(-1796.392 -1768.37)" fill="#daeef7"/>
        </g>
        <path id="Path_176" data-name="Path 176" d="M1749.8,1778.381c-1.354-4.351-3.663-4.84-4.929-4.729l-.4,3.486c-.067.666.289,1.265.777,1.265Z" transform="translate(-1744.228 -1770.633)" fill="#e87b50" opacity="0.3"/>
      </g>
      <path id="Path_177" data-name="Path 177" d="M1631.621,1803.856h-94.959a4.065,4.065,0,0,1-4.063-4.063v-3.131a4.065,4.065,0,0,1,4.063-4.063h94.959a4.065,4.065,0,0,1,4.063,4.063v3.131A4.08,4.08,0,0,1,1631.621,1803.856Z" transform="translate(-1413.019 -1569.984)" fill="#283f56"/>
      <path id="Path_178" data-name="Path 178" d="M1069.709,1902.667h-62.921s-28.774-8.9,0-8.593c0,0-16.918-12.589,8.681-9.591,25.621,3,28.019,10.635,28.019,10.635S1048.573,1886.082,1069.709,1902.667Z" transform="translate(-994 -1641.109)" fill="#fff" opacity="0.8"/>
      <path id="Path_179" data-name="Path 179" d="M1679.456,1933.181l40.919-.289s-22.357-12.877-25.51-7.26C1694.865,1925.632,1655.256,1917.44,1679.456,1933.181Z" transform="translate(-1521.177 -1671.823)" fill="#fff" opacity="0.8"/>
      <path id="Path_180" data-name="Path 180" d="M2028.861,1872.893H1957.1s-6.416-7.7,7.7-4.906c0,0-9.147-11.79,12.011-7.06l12.855,4.307s-21-26.554,2.575-17.34S2028.861,1872.893,2028.861,1872.893Z" transform="translate(-1742.141 -1611.49)" fill="#fff" opacity="0.8"/>
      <path id="Path_181" data-name="Path 181" d="M1455.862,1932.033H1436.9s-2.464-5.4,4.44-2.686C1441.342,1929.346,1432.039,1911.207,1455.862,1932.033Z" transform="translate(-1338.235 -1670.674)" fill="#fff" opacity="0.8"/>
      <path id="Path_182" data-name="Path 182" d="M1696.791,959.539l-.933,3.619s-8.126-6.572-8.059-6.705,1.465-2.464,2.087-2.287c.6.2,5.684,2.154,5.684,2.287S1696.791,959.539,1696.791,959.539Z" transform="translate(-1533.76 -917.694)" fill="#fff"/>
      <path id="Path_183" data-name="Path 183" d="M1641.551,873.439a9.931,9.931,0,0,0,5.972,3c.355-1.243.577-2.154.577-2.154s2.731-.844,3.6-1.821c0,0-2.753-3.774-2.8-5.55s2.708-12.389-4.929-18.406-12.189,4.774-12.189,4.774l-3.241,11.168-4.44,6.749a17.779,17.779,0,0,0,7.127,10.413,15.763,15.763,0,0,0,13.9,2.131c.289-.133,1.088-2.775,1.8-5.217A9.555,9.555,0,0,1,1641.551,873.439Z" transform="translate(-1484.204 -834.081)" fill="#ffc0bb"/>
      <path id="Path_184" data-name="Path 184" d="M1708.589,930.263a1.242,1.242,0,0,0,1.643.444,1.133,1.133,0,0,0,.466-1.576,1.241,1.241,0,0,0-1.643-.444A1.15,1.15,0,0,0,1708.589,930.263Z" transform="translate(-1549.821 -897.765)" fill="#333"/>
      <path id="Path_185" data-name="Path 185" d="M1701.3,918.338a11.5,11.5,0,0,1,1.266-.933,5.253,5.253,0,0,1,1.354-.6,4.541,4.541,0,0,1,1.443-.2h.4l.377.022c.266.022.511.067.8.067a4.4,4.4,0,0,0-.688-.422,3.722,3.722,0,0,0-2.531-.155,3.549,3.549,0,0,0-1.51.866A3.189,3.189,0,0,0,1701.3,918.338Z" transform="translate(-1544.264 -887.971)" fill="#333"/>
      <path id="Path_186" data-name="Path 186" d="M1627.517,886.514s-2.687,2.265-3.353,12.722c-.51,8.1-7.3,9.414-7.171,9.369s1.91-17.806,2.242-18.406,2.62-7.349,2.975-7.527,4.973,2.842,5.24,2.931C1627.717,885.671,1627.517,886.514,1627.517,886.514Z" transform="translate(-1478.673 -862.076)" fill="#d12a56"/>
      <path id="Path_187" data-name="Path 187" d="M1592.977,806.928s-2.731-17.939-25.754-16.962-22.269,27.664-22.269,27.664-.933,19.338,12.855,19.338c0,0,9.325.6,9.325-11.035,0-11.257,3.419-11.257,3.419-11.257Z" transform="translate(-1422.62 -789.927)" fill="#ff5b7e"/>
      <path id="Path_188" data-name="Path 188" d="M1550.071,831.9c-5.329,8.037-5.018,18.361-5.018,18.361s-.933,19.338,12.855,19.338c0,0,9.081.577,9.325-10.59C1554.556,854.546,1550.493,843.423,1550.071,831.9Z" transform="translate(-1422.697 -822.581)" fill="#ff5b7e" opacity="0.5"/>
      <circle id="Ellipse_19" data-name="Ellipse 19" cx="2.62" cy="2.62" r="2.62" transform="translate(132.236 37.138)" fill="#d12a56"/>
      <path id="Path_189" data-name="Path 189" d="M1660.3,872.3c.688-.244,18.25-1.6,26.487-2.22a1.508,1.508,0,0,0,.755-2.731L1682.724,864Z" transform="translate(-1512.367 -847.554)" fill="#1a1a1a"/>
      <path id="Path_190" data-name="Path 190" d="M1660.3,860.722c.777-.266,17.917-5.95,22.868-7.571a1.28,1.28,0,0,0,.777-1.71l-.666-1.554a1.277,1.277,0,0,0-1.776-.622Z" transform="translate(-1512.367 -835.972)" fill="#283f56"/>
      <path id="Path_191" data-name="Path 191" d="M1796.648,1299.03s5.817-3.53,8.348-3.53,7.837,1.51,7.837,4.041a6.044,6.044,0,0,1-1.51,4.041l-5.129,4.418s-2.442,1.887-3.463.888-4.041.244-9.059-2.509c-4.906-2.708-.311-4.307.444-5.062S1796.648,1299.03,1796.648,1299.03Z" transform="translate(-1614.39 -1183.251)" fill="#ffc0bb"/>
      <circle id="Ellipse_20" data-name="Ellipse 20" cx="5.373" cy="5.373" r="5.373" transform="translate(187.609 114.136)" fill="#1a1a1a"/>
    </g>
    <path id="Path_192" data-name="Path 192" d="M998.4,1973.161H435.731a2.331,2.331,0,0,1-2.331-2.332v-1.8a2.331,2.331,0,0,1,2.331-2.331H998.4a2.331,2.331,0,0,1,2.331,2.331v1.8A2.331,2.331,0,0,1,998.4,1973.161Z" transform="translate(-145.893 -1517.147)" fill="#07085b"/>
    <g id="Group_232" data-name="Group 232" transform="translate(717.776 337.285)">
      <g id="Group_231" data-name="Group 231">
        <g id="Group_230" data-name="Group 230">
          <path id="Path_193" data-name="Path 193" d="M2397.543,1538.513a30.545,30.545,0,0,1-17.274-4.907c-4.107-2.686-7.971-6.638-8.68-12.233-1.622-12.766,5.728-12.344,7.526-17.54s-3.552-7.527-1.243-17.007c1.243-5.084,5.173-7.3,11.278-15.475s13.521-12.367,18.939-9.325,5.2,9.614,9.214,11.79,10.191,9.813,7.837,24.312,13.587,9.1,7.349,25.865C2427.915,1536.315,2407.911,1538.313,2397.543,1538.513Z" transform="translate(-2371.357 -1461.035)" fill="#70c0fd"/>
        </g>
        <path id="Path_194" data-name="Path 194" d="M2465.307,1609.439c-.577,8.059-1.4,40.142-.2,42.939,1.8,4.152-7.66-1.021-7.66-1.021s2.509-19.16,3.974-28.508c.644-4.174,1.843-16.7,1.843-17.784-.044-.089-.111-.2-.156-.289-2.109-3.974-6.5-8.126-12.988-10.5a25.915,25.915,0,0,1,13.077,7.637,11.343,11.343,0,0,0-.577-3.241c-.955-2.287-2.62-5.04-7.26-8.459a25.85,25.85,0,0,0-2.975-1.887c-.511-.266-1.066-.533-1.6-.755a15.15,15.15,0,0,0-1.687-.577c.6.089,1.176.2,1.775.333q.866.233,1.732.533a26.1,26.1,0,0,1,3.308,1.51c.666.377,1.332.755,2,1.177a42.386,42.386,0,0,1-4.4-24.245,72.892,72.892,0,0,0,2.087,13.765,18.166,18.166,0,0,1,1.154-3.064,23.238,23.238,0,0,1,2.576-4.152c.333-.422.688-.844,1.021-1.265-.289.466-.578.91-.866,1.376a23.689,23.689,0,0,0-2.021,4.33,18.478,18.478,0,0,0-.755,3.042,15.216,15.216,0,0,0-.11,2.975,22.1,22.1,0,0,0,1.176,2.642c2.775,5.24,6.128,8.992,7.548,12.056.533-1,1.088-1.976,1.621-2.975,1.177-2.087,2.4-4.174,3.663-6.217.2-.333.422-.666.622-1a23.1,23.1,0,0,0,.955-4.685,31.781,31.781,0,0,0,.177-4.463,30.22,30.22,0,0,1,.289,4.507c0,.755-.044,1.51-.111,2.265a2.118,2.118,0,0,1-.045.378l.023-.022c.666-1,1.332-2,2.02-2.975s1.421-1.954,2.154-2.886a30.565,30.565,0,0,1,2.4-2.687,33.563,33.563,0,0,0-2.2,2.842c-.688.977-1.332,2-1.954,3.02s-1.221,2.043-1.82,3.086c-.577,1.044-1.154,2.087-1.709,3.153a3.612,3.612,0,0,1-.222.4c.244-.067.6-.156,1.354-.333a44.7,44.7,0,0,1,7.393-.933,44.39,44.39,0,0,0-7.215,1.621c-.71.222-1.443.488-2.131.777-.822,1.621-1.621,3.241-2.42,4.862-.511,1.088-1.021,2.154-1.509,3.242a6.151,6.151,0,0,0-.577,1.31C2465.8,1602.023,2465.307,1609.439,2465.307,1609.439Z" transform="translate(-2431.84 -1542.929)" fill="#07085b"/>
      </g>
    </g>
    <path id="Path_195" data-name="Path 195" d="M465.2,1902.446s5.528-8.348,15.586-6.55c0,0,5.551-11.767,20.914-11.9,15.586-.133,18.539,10.724,18.539,10.724s4.441-3.752,14.5.111c10.058,3.841,13.61,10.791,13.61,10.791Z" transform="translate(-170.633 -1452.804)" fill="#07085b"/>
    <path id="Path_196" data-name="Path 196" d="M2490.546,1846.525s-.644-10.657-9.924-9.68c0,0-12.633-20.137-25.843,8.281,0,0-11.945-6.461-16.341,7.571,0,0-7.349-13.7-17.807-9.169s-14.031,17.007-14.031,17.007l77.2,1.643Z" transform="translate(-1680.999 -1410.737)" fill="#70c0fd"/>
    <path id="Path_197" data-name="Path 197" d="M2680.647,1902.446s-5.529-8.348-15.586-6.55c0,0-5.55-11.767-20.915-11.9-15.586-.133-18.538,10.724-18.538,10.724s-4.44-3.752-14.5.111c-10.058,3.841-13.61,10.791-13.61,10.791Z" transform="translate(-1829.515 -1452.804)" fill="#07085b"/>
    <path id="Path_198" data-name="Path 198" d="M2615.823,1306.714c-5.794-2.975-10.657-7.9-12.411-13.921-1.687-5.817-.377-11.989,1.044-17.851.622-2.575,1.243-5.328.244-7.793a16.077,16.077,0,0,0-2.909-4.063c-9.37-11.035-11.5-26.177-10.324-40.3.333-3.93.91-7.926,2.864-11.39s5.505-6.35,9.635-6.616c6.372-.422,12.455,5.217,18.539,3.33,4.352-1.354,6.55-6.039,10.5-8.259,3.308-1.865,7.415-1.754,11.256-1.576a10.746,10.746,0,0,1,3.574.555c2.554,1,3.841,3.663,4.641,6.15,1.31,4.041,1.954,8.237,3.264,12.278s3.4,8.015,6.949,10.568c2.842,2.065,6.35,3.042,9.569,4.552,7.9,3.73,13.676,10.635,17.939,17.984a27.925,27.925,0,0,1,3.108,6.9c2.042,7.637-1.91,16.385-9.17,20.226-2.708,1.421-5.75,2.22-8.437,3.663-6.172,3.308-9.769,9.591-13.3,15.408-3.53,5.84-7.793,11.9-14.432,14.232C2638.891,1313.93,2624.082,1310.932,2615.823,1306.714Z" transform="translate(-1824.593 -919.26)" fill="#70c0fd"/>
    <path id="Path_199" data-name="Path 199" d="M2762.33,1318.283c-1.443-.2-2.886-.311-4.329-.377s-2.909-.044-4.352,0c-.4.022-.8.022-1.2.044a37.531,37.531,0,0,0,5.4-3.086,19.916,19.916,0,0,0,5.041-4.907,18.455,18.455,0,0,1-5.24,4.4,34.98,34.98,0,0,1-5.95,2.731c-1.866.688-3.752,1.266-5.64,1.8a14.441,14.441,0,0,0,.777-1.554,20.9,20.9,0,0,0,1.288-3.708,21.426,21.426,0,0,0,.621-3.908,25.983,25.983,0,0,0-.044-3.952,24.969,24.969,0,0,1-.289,3.885,22.329,22.329,0,0,1-.91,3.686,18.166,18.166,0,0,1-1.51,3.33,13.05,13.05,0,0,1-.955,1.488,5.177,5.177,0,0,1-1.11,1.266c-1.555.422-3.131.8-4.685,1.2-5,1.288-12.012,2.931-19.738,9.547-.333-3.863-.666-8.281-.91-11.367a29.128,29.128,0,0,1,.466-7.86v-.045c.532-2.642,1.088-5.306,1.665-7.948.889-4,1.8-7.993,2.776-11.967,1.976-8.348,1.51-9.436,1.687-11.345a9.178,9.178,0,0,0,0-1.554v-.089c-.133-1.732-.333-3.441-.577-5.151a87.947,87.947,0,0,0-2.021-10.035,86.631,86.631,0,0,1,1.176,10.146c.089,1.709.134,3.4.134,5.106q0,1.266-.067,2.531-.033.633-.066,1.266c-.022.2-.022.422-.044.622,0,.133-.71,3.108-.977,3.952q-2.432,7.693-4.619,15.519c-.688,2.442-1.354,4.885-2,7.349a28.2,28.2,0,0,0-.666,3.308c-.156-.467-1.421-4-2.042-5.44a111.064,111.064,0,0,0-11.434-21.092c-2-2.886-2.243-3.153-4.885-6.572,3.264,4.818,2.309,3.353,4.529,6.927a114.847,114.847,0,0,1,10.236,21.647c.977,2.931,1.487,4.4,2.464,8.259.11.466.244.932.333,1.4.066.267.11.533.177.778a61.158,61.158,0,0,0,.355,10.857c.178,1.465,1.887,27.819,2.087,37.477.444,21.692-3.4,46.248-3.4,46.248s22.957,7.149,18.3-1.488c-3.131-5.795-10.636-58.17-12.278-76.575.133-.133.244-.266.377-.4,6.972-7.549,14.232-10.013,19.383-11.834,2.375-.822,4.773-1.643,7.149-2.531h0c1.4-.289,5.461-1.021,6.883-1.221,1.421-.178,2.863-.311,4.285-.4,1.442-.067,2.864-.089,4.307-.022a25.488,25.488,0,0,1,4.285.577A32.685,32.685,0,0,0,2762.33,1318.283Z" transform="translate(-1907.001 -969.528)" fill="#07085b"/>
  </g>
</svg>
