<?xml version="1.0" standalone="no"?>
<!DOCTYPE svg PUBLIC "-//W3C//DTD SVG 20010904//EN"
 "http://www.w3.org/TR/2001/REC-SVG-20010904/DTD/svg10.dtd">
<svg version="1.0" xmlns="http://www.w3.org/2000/svg"
 width="200.000000pt" height="200.000000pt" viewBox="0 0 200.000000 200.000000"
 preserveAspectRatio="xMidYMid meet">
<metadata>
Created by potrace 1.16, written by Peter Selinger 2001-2019
</metadata>
<g transform="translate(0.000000,200.000000) scale(0.100000,-0.100000)"
fill="#000000" stroke="none">
<path d="M988 1864 c-2 -1 -16 -5 -31 -8 -240 -43 -427 -231 -472 -471 -7 -38
-7 -142 0 -175 2 -14 8 -38 11 -55 4 -16 19 -59 35 -94 26 -56 28 -66 14 -74
-45 -25 -177 -132 -215 -174 -140 -156 -223 -361 -233 -578 -2 -33 0 -64 4
-70 5 -7 311 -8 901 -5 l893 5 0 70 c0 254 -135 521 -346 681 l-47 37 29 52
c37 65 69 157 75 215 3 25 7 51 9 57 7 21 -22 165 -45 222 -38 97 -116 194
-216 271 -49 38 -163 80 -226 83 -16 1 -28 5 -28 8 0 6 -107 9 -112 3z m189
-170 c124 -41 218 -131 268 -254 23 -58 27 -188 8 -260 -35 -136 -136 -240
-288 -294 -11 -4 -54 -10 -96 -13 -129 -9 -239 34 -332 130 -85 88 -119 185
-112 316 6 116 45 202 126 280 45 43 144 96 205 109 55 12 164 5 221 -14z
m-487 -844 c32 -33 134 -83 214 -106 148 -42 322 -11 458 80 43 28 70 14 171
-87 121 -121 188 -248 211 -399 l6 -38 -751 0 -751 0 6 48 c25 197 178 414
360 511 39 20 49 19 76 -9z"/>
</g>
</svg>
