<?xml version="1.0" standalone="no"?>
<!DOCTYPE svg PUBLIC "-//W3C//DTD SVG 20010904//EN"
 "http://www.w3.org/TR/2001/REC-SVG-20010904/DTD/svg10.dtd">
<svg version="1.0" xmlns="http://www.w3.org/2000/svg"
 width="200.000000pt" height="200.000000pt" viewBox="0 0 200.000000 200.000000"
 preserveAspectRatio="xMidYMid meet">

<g transform="translate(0.000000,200.000000) scale(0.100000,-0.100000)"
fill="#000000" stroke="none">
<path d="M750 1829 c-160 -14 -288 -77 -410 -199 -138 -137 -200 -286 -200
-480 0 -120 19 -202 72 -310 55 -111 177 -237 285 -293 228 -119 527 -99 723
47 l34 26 251 -249 c137 -137 257 -251 265 -252 56 -11 104 45 80 93 -7 12
-120 132 -253 265 l-240 241 31 49 c81 126 114 237 113 383 0 125 -16 194 -73
310 -33 69 -58 102 -127 170 -154 154 -335 219 -551 199z m214 -155 c125 -32
240 -118 318 -238 56 -87 80 -171 80 -286 0 -115 -23 -198 -82 -288 -106 -165
-266 -252 -460 -252 -159 0 -266 45 -380 160 -111 111 -160 227 -160 380 0
152 49 268 160 381 77 78 143 118 237 144 67 19 213 18 287 -1z"/>
</g>
</svg>
