<?xml version="1.0" standalone="no"?>
<!DOCTYPE svg PUBLIC "-//W3C//DTD SVG 20010904//EN"
 "http://www.w3.org/TR/2001/REC-SVG-20010904/DTD/svg10.dtd">
<svg version="1.0" xmlns="http://www.w3.org/2000/svg"
 width="200.000000pt" height="200.000000pt" viewBox="0 0 200.000000 200.000000"
 preserveAspectRatio="xMidYMid meet">
<metadata>
Created by potrace 1.16, written by Peter Selinger 2001-2019
</metadata>
<g transform="translate(0.000000,200.000000) scale(0.100000,-0.100000)"
fill="#000000" stroke="none">
<path d="M515 1847 c-16 -5 -46 -13 -65 -19 -211 -60 -368 -275 -364 -498 1
-118 62 -317 137 -450 75 -134 242 -334 403 -480 200 -182 364 -313 379 -301
5 5 32 25 59 45 53 40 135 105 152 121 6 6 37 33 69 60 62 53 253 241 295 291
210 250 318 485 324 709 3 96 -14 167 -60 256 -63 120 -191 223 -316 255 -10
2 -28 7 -40 10 -39 11 -131 10 -175 -3 -24 -7 -43 -10 -43 -8 0 9 -115 -46
-154 -73 -22 -15 -58 -46 -80 -70 l-40 -43 -40 43 c-68 72 -199 145 -276 153
-19 2 -35 5 -35 6 0 6 -106 3 -130 -4z m195 -193 c62 -23 108 -58 159 -121 52
-64 88 -82 149 -73 38 6 54 17 115 82 88 91 162 130 252 132 115 3 197 -33
273 -119 140 -159 78 -472 -151 -761 -48 -60 -318 -329 -391 -389 -27 -22 -54
-44 -60 -50 -59 -52 -51 -50 -95 -18 -112 82 -360 323 -465 451 -145 176 -222
350 -232 525 -5 78 -3 100 15 148 25 66 96 146 158 178 79 40 189 46 273 15z"/>
</g>
</svg>
